<svg xmlns="http://www.w3.org/2000/svg" width="550" height="96" viewBox="0 0 550 96">
  <path fill="#323232" fill-rule="evenodd" d="M74.5,90 L74.5,89 L80.5,87.5 L80.5,22.5 L74.5,21 L74.5,20 L92.5,20 C95.633349,20 98.3499885,20.3499965 100.65,21.05 C102.950012,21.7500035 104.866659,22.7166605 106.4,23.95 C107.933341,25.1833395 109.08333,26.6166585 109.85,28.25 C110.61667,29.8833415 111,31.633324 111,33.5 C111,34.966674 110.783335,36.266661 110.35,37.4 C109.916664,38.533339 109.350004,39.5166625 108.65,40.35 C107.949996,41.1833375 107.150004,41.9166635 106.25,42.55 C105.349996,43.1833365 104.433338,43.699998 103.5,44.1 C101.299989,45.100005 98.800014,45.733332 96,46 C100.133354,46.400002 103.799984,47.433325 107,49.1 C108.400007,49.833337 109.749994,50.7166615 111.05,51.75 C112.350007,52.7833385 113.516661,54.0499925 114.55,55.55 C115.583338,57.0500075 116.416663,58.7833235 117.05,60.75 C117.683336,62.7166765 118,64.966654 118,67.5 C118,70.633349 117.400006,73.566653 116.2,76.3 C114.999994,79.033347 113.283344,81.4166565 111.05,83.45 C108.816655,85.4833435 106.133349,87.0833275 103,88.25 C99.866651,89.4166725 96.366686,90 92.5,90 L74.5,90 Z M89,47 L89,88 L92.5,88 C94.766678,88 96.866657,87.566671 98.8,86.7 C100.733343,85.833329 102.41666,84.533342 103.85,82.8 C105.283341,81.066658 106.416663,78.933346 107.25,76.4 C108.083337,73.866654 108.5,70.900017 108.5,67.5 C108.5,64.099983 108.083337,61.133346 107.25,58.6 C106.416663,56.066654 105.283341,53.933342 103.85,52.2 C102.41666,50.466658 100.733343,49.166671 98.8,48.3 C96.866657,47.433329 94.766678,47 92.5,47 L89,47 Z M89,45 L92.5,45 C95.500015,44.933333 97.9166575,43.9500095 99.75,42.05 C101.583343,40.1499905 102.5,37.300019 102.5,33.5 C102.5,29.699981 101.583343,26.833343 99.75,24.9 C97.9166575,22.966657 95.500015,22 92.5,22 L89,22 L89,45 Z M126.9,87.5 L126.9,46.5 L120.9,45 L120.9,44 L134.9,44 L134.9,87.5 L140.9,89 L140.9,90 L120.9,90 L120.9,89 L126.9,87.5 Z M135.4,32.5 C135.4,33.766673 134.883339,34.9166615 133.85,35.95 C132.816662,36.9833385 131.666673,37.5 130.4,37.5 C129.133327,37.5 127.983339,36.9833385 126.95,35.95 C125.916662,34.9166615 125.4,33.766673 125.4,32.5 C125.4,31.233327 125.916662,30.0833385 126.95,29.05 C127.983339,28.0166615 129.133327,27.5 130.4,27.5 C131.666673,27.5 132.816662,28.0166615 133.85,29.05 C134.883339,30.0833385 135.4,31.233327 135.4,32.5 Z M164.3,44.5 C162.899993,44.5 161.550006,44.8833295 160.25,45.65 C158.949994,46.4166705 157.783339,47.666658 156.75,49.4 C155.716661,51.133342 154.883336,53.433319 154.25,56.3 C153.616663,59.166681 153.3,62.733312 153.3,67 C153.3,71.266688 153.616663,74.833319 154.25,77.7 C154.883336,80.566681 155.683329,82.8833245 156.65,84.65 C157.616671,86.4166755 158.683327,87.666663 159.85,88.4 C161.016672,89.133337 162.166661,89.5 163.3,89.5 C164.900008,89.5 166.316661,89.033338 167.55,88.1 C168.78334,87.166662 169.833329,86.133339 170.7,85 C171.700005,83.733327 172.566663,82.233342 173.3,80.5 L173.3,50.5 C172.63333,49.366661 171.866671,48.366671 171,47.5 C170.266663,46.766663 169.350006,46.0833365 168.25,45.45 C167.149994,44.8166635 165.833341,44.5 164.3,44.5 Z M181.3,87.5 L187.3,89 L187.3,90 L173.3,90 L173.3,84 C172.566663,85.400007 171.633339,86.666661 170.5,87.8 C169.566662,88.733338 168.38334,89.5833295 166.95,90.35 C165.51666,91.1166705 163.80001,91.5 161.8,91.5 C159.666656,91.5 157.55001,90.9500055 155.45,89.85 C153.349989,88.7499945 151.483341,87.1500105 149.85,85.05 C148.216658,82.9499895 146.883338,80.3833485 145.85,77.35 C144.816662,74.3166515 144.3,70.866686 144.3,67 C144.3,63.133314 144.816662,59.6833485 145.85,56.65 C146.883338,53.6166515 148.266658,51.0500105 150,48.95 C151.733342,46.8499895 153.699989,45.2500055 155.9,44.15 C158.100011,43.0499945 160.399988,42.5 162.8,42.5 C164.666676,42.5 166.26666,42.766664 167.6,43.3 C168.93334,43.833336 170.033329,44.399997 170.9,45 C171.900005,45.733337 172.699997,46.566662 173.3,47.5 L173.3,22.5 L167.3,21 L167.3,20 L181.3,20 L181.3,87.5 Z M186.2,21 L186.2,20 L207.2,20 L207.2,21 L201.2,22.5 L215.7,74 L230.2,18.5 L231.7,18.5 L248.1,74 L261.2,23.5 L254.7,21 L254.7,20 L269.7,20 L269.7,21 L263.2,23.5 L245.7,91.5 L244.2,91.5 L227.7,35.5 L213.2,91.5 L211.7,91.5 L192.2,22.5 L186.2,21 Z M275.1,67 C275.1,71.266688 275.416664,74.833319 276.05,77.7 C276.683336,80.566681 277.516661,82.8833245 278.55,84.65 C279.583338,86.4166755 280.749993,87.666663 282.05,88.4 C283.350006,89.133337 284.699993,89.5 286.1,89.5 C287.833342,89.5 289.466659,89.16667 291,88.5 C292.533341,87.83333 293.899994,86.933339 295.1,85.8 C296.300006,84.666661 297.28333,83.300008 298.05,81.7 C298.81667,80.099992 299.333332,78.366676 299.6,76.5 L301.1,76.5 C300.833332,78.633344 300.250004,80.6166575 299.35,82.45 C298.449995,84.2833425 297.300007,85.86666 295.9,87.2 C294.499993,88.53334 292.883343,89.5833295 291.05,90.35 C289.216657,91.1166705 287.233344,91.5 285.1,91.5 C282.566654,91.5 280.166678,90.9500055 277.9,89.85 C275.633322,88.7499945 273.616675,87.1500105 271.85,85.05 C270.083325,82.9499895 268.683338,80.3833485 267.65,77.35 C266.616661,74.3166515 266.1,70.866686 266.1,67 C266.1,62.99998 266.599995,59.466682 267.6,56.4 C268.600005,53.333318 269.916658,50.7833435 271.55,48.75 C273.183341,46.7166565 275.083323,45.166672 277.25,44.1 C279.416677,43.033328 281.699988,42.5 284.1,42.5 C286.500012,42.5 288.783322,43.033328 290.95,44.1 C293.116677,45.166672 295.016658,46.7166565 296.65,48.75 C298.283342,50.7833435 299.599995,53.333318 300.6,56.4 C301.600005,59.466682 302.1,62.99998 302.1,67 L275.1,67 Z M284.1,44 C283.099995,44 282.100005,44.3166635 281.1,44.95 C280.099995,45.5833365 279.166671,46.699992 278.3,48.3 C277.433329,49.900008 276.716669,52.0499865 276.15,54.75 C275.58333,57.4500135 275.233334,60.866646 275.1,65 L293.1,65 C292.966666,60.866646 292.616669,57.4500135 292.05,54.75 C291.48333,52.0499865 290.766671,49.900008 289.9,48.3 C289.033329,46.699992 288.100005,45.5833365 287.1,44.95 C286.099995,44.3166635 285.100005,44 284.1,44 Z M312,87.5 L312,22.5 L306,21 L306,20 L320,20 L320,87.5 L326,89 L326,90 L306,90 L306,89 L312,87.5 Z M334.4,87.5 L334.4,22.5 L328.4,21 L328.4,20 L342.4,20 L342.4,87.5 L348.4,89 L348.4,90 L328.4,90 L328.4,89 L334.4,87.5 Z M391.7,20 C395.966688,20 399.666651,20.466662 402.8,21.4 C405.933349,22.333338 408.533323,23.599992 410.6,25.2 C412.666677,26.800008 414.199995,28.6499895 415.2,30.75 C416.200005,32.8500105 416.7,35.099988 416.7,37.5 C416.7,39.433343 416.41667,41.1499925 415.85,42.65 C415.283331,44.1500075 414.550005,45.4833275 413.65,46.65 C412.749996,47.8166725 411.700006,48.799996 410.5,49.6 C409.299994,50.400004 408.100006,51.066664 406.9,51.6 C404.033319,52.866673 400.800018,53.666665 397.2,54 C400.133348,54.333335 402.799988,55.033328 405.2,56.1 C407.266677,57.033338 409.199991,58.399991 411,60.2 C412.800009,62.000009 413.866665,64.433318 414.2,67.5 L416.2,85 C416.333334,86.266673 416.633331,87.166664 417.1,87.7 C417.566669,88.233336 418.099997,88.5 418.7,88.5 C419.033335,88.5 419.383331,88.3833345 419.75,88.15 C420.116669,87.9166655 420.466665,87.633335 420.8,87.3 C421.133335,86.966665 421.433332,86.533336 421.7,86 L422.7,87 C422.299998,87.866671 421.733337,88.63333 421,89.3 C420.399997,89.833336 419.616671,90.333331 418.65,90.8 C417.683328,91.266669 416.53334,91.5 415.2,91.5 C412.933322,91.5 411.083341,90.8500065 409.65,89.55 C408.216659,88.2499935 407.400001,86.733342 407.2,85 L405.2,67.5 C404.933332,65.233322 404.500003,63.3166745 403.9,61.75 C403.299997,60.1833255 402.483339,58.900005 401.45,57.9 C400.416661,56.899995 399.100008,56.166669 397.5,55.7 C395.899992,55.233331 393.966678,55 391.7,55 L387.7,55 L387.7,87.5 L393.7,89 L393.7,90 L373.2,90 L373.2,89 L379.2,87.5 L379.2,22.5 L373.2,21 L373.2,20 L391.7,20 Z M407.2,37.5 C407.2,32.499975 405.86668,28.66668 403.2,26 C400.53332,23.33332 396.700025,22 391.7,22 L387.7,22 L387.7,53 L391.7,53 C396.700025,53 400.53332,51.66668 403.2,49 C405.86668,46.33332 407.2,42.500025 407.2,37.5 Z M434.1,67 C434.1,71.266688 434.416664,74.833319 435.05,77.7 C435.683336,80.566681 436.516661,82.8833245 437.55,84.65 C438.583339,86.4166755 439.749994,87.666663 441.05,88.4 C442.350007,89.133337 443.699993,89.5 445.1,89.5 C446.833342,89.5 448.466659,89.16667 450,88.5 C451.533341,87.83333 452.899994,86.933339 454.1,85.8 C455.300006,84.666661 456.28333,83.300008 457.05,81.7 C457.816671,80.099992 458.333332,78.366676 458.6,76.5 L460.1,76.5 C459.833332,78.633344 459.250004,80.6166575 458.35,82.45 C457.449996,84.2833425 456.300007,85.86666 454.9,87.2 C453.499993,88.53334 451.883342,89.5833295 450.05,90.35 C448.216658,91.1166705 446.233344,91.5 444.1,91.5 C441.566654,91.5 439.166678,90.9500055 436.9,89.85 C434.633322,88.7499945 432.616675,87.1500105 430.85,85.05 C429.083325,82.9499895 427.683339,80.3833485 426.65,77.35 C425.616662,74.3166515 425.1,70.866686 425.1,67 C425.1,62.99998 425.599995,59.466682 426.6,56.4 C427.600005,53.333318 428.916659,50.7833435 430.55,48.75 C432.183342,46.7166565 434.083323,45.166672 436.25,44.1 C438.416677,43.033328 440.699988,42.5 443.1,42.5 C445.500012,42.5 447.783323,43.033328 449.95,44.1 C452.116678,45.166672 454.016659,46.7166565 455.65,48.75 C457.283342,50.7833435 458.599995,53.333318 459.6,56.4 C460.600005,59.466682 461.1,62.99998 461.1,67 L434.1,67 Z M443.1,44 C442.099995,44 441.100005,44.3166635 440.1,44.95 C439.099995,45.5833365 438.166671,46.699992 437.3,48.3 C436.433329,49.900008 435.71667,52.0499865 435.15,54.75 C434.58333,57.4500135 434.233334,60.866646 434.1,65 L452.1,65 C451.966666,60.866646 451.61667,57.4500135 451.05,54.75 C450.483331,52.0499865 449.766671,49.900008 448.9,48.3 C448.033329,46.699992 447.100005,45.5833365 446.1,44.95 C445.099995,44.3166635 444.100005,44 443.1,44 Z M470.5,46.5 L464.5,45 L464.5,44 L478.5,44 L478.5,50 C479.16667,48.66666 480.066661,47.433339 481.2,46.3 C482.133338,45.366662 483.333326,44.500004 484.8,43.7 C486.266674,42.899996 487.99999,42.5 490,42.5 C492.133344,42.5 494.249989,43.0499945 496.35,44.15 C498.45001,45.2500055 500.316658,46.8499895 501.95,48.95 C503.583341,51.0500105 504.916661,53.6166515 505.95,56.65 C506.983338,59.6833485 507.5,63.133314 507.5,67 C507.5,70.866686 506.983338,74.3166515 505.95,77.35 C504.916661,80.3833485 503.533342,82.9499895 501.8,85.05 C500.066658,87.1500105 498.100011,88.7499945 495.9,89.85 C493.699989,90.9500055 491.400012,91.5 489,91.5 C487.066657,91.5 485.450006,91.2500025 484.15,90.75 C482.849993,90.2499975 481.766671,89.66667 480.9,89 C479.899995,88.266663 479.100003,87.433338 478.5,86.5 L478.5,111.5 L484.5,113 L484.5,114 L464.5,114 L464.5,113 L470.5,111.5 L470.5,46.5 Z M487.5,89.5 C488.900007,89.5 490.249993,89.133337 491.55,88.4 C492.850006,87.666663 494.016661,86.4166755 495.05,84.65 C496.083338,82.8833245 496.916663,80.566681 497.55,77.7 C498.183336,74.833319 498.5,71.266688 498.5,67 C498.5,62.733312 498.183336,59.166681 497.55,56.3 C496.916663,53.433319 496.116671,51.133342 495.15,49.4 C494.183328,47.666658 493.116672,46.4166705 491.95,45.65 C490.783327,44.8833295 489.633339,44.5 488.5,44.5 C486.833325,44.5 485.400006,44.966662 484.2,45.9 C482.999994,46.833338 481.966671,47.866661 481.1,49 C480.099995,50.33334 479.233337,51.833325 478.5,53.5 L478.5,83.5 C479.100003,84.633339 479.833329,85.633329 480.7,86.5 C481.433337,87.233337 482.366661,87.9166635 483.5,88.55 C484.633339,89.1833365 485.966659,89.5 487.5,89.5 Z M532.4,44 C531.266661,44 530.116673,44.3833295 528.95,45.15 C527.783328,45.9166705 526.716672,47.1833245 525.75,48.95 C524.783328,50.7166755 523.983336,53.066652 523.35,56 C522.716664,58.933348 522.4,62.599978 522.4,67 C522.4,71.400022 522.716664,75.066652 523.35,78 C523.983336,80.933348 524.783328,83.2833245 525.75,85.05 C526.716672,86.8166755 527.783328,88.0833295 528.95,88.85 C530.116673,89.6166705 531.266661,90 532.4,90 C533.533339,90 534.683327,89.6166705 535.85,88.85 C537.016672,88.0833295 538.083328,86.8166755 539.05,85.05 C540.016672,83.2833245 540.816664,80.933348 541.45,78 C542.083337,75.066652 542.4,71.400022 542.4,67 C542.4,62.599978 542.083337,58.933348 541.45,56 C540.816664,53.066652 540.016672,50.7166755 539.05,48.95 C538.083328,47.1833245 537.016672,45.9166705 535.85,45.15 C534.683327,44.3833295 533.533339,44 532.4,44 Z M532.4,42.5 C534.866679,42.5 537.249988,43.0499945 539.55,44.15 C541.850011,45.2500055 543.883324,46.8499895 545.65,48.95 C547.416675,51.0500105 548.816662,53.6166515 549.85,56.65 C550.883338,59.6833485 551.4,63.133314 551.4,67 C551.4,70.866686 550.883338,74.3166515 549.85,77.35 C548.816662,80.3833485 547.416675,82.9499895 545.65,85.05 C543.883324,87.1500105 541.850011,88.7499945 539.55,89.85 C537.249988,90.9500055 534.866679,91.5 532.4,91.5 C529.866654,91.5 527.466678,90.9500055 525.2,89.85 C522.933322,88.7499945 520.916675,87.1500105 519.15,85.05 C517.383324,82.9499895 515.983338,80.3833485 514.95,77.35 C513.916661,74.3166515 513.4,70.866686 513.4,67 C513.4,63.133314 513.916661,59.6833485 514.95,56.65 C515.983338,53.6166515 517.383324,51.0500105 519.15,48.95 C520.916675,46.8499895 522.933322,45.2500055 525.2,44.15 C527.466678,43.0499945 529.866654,42.5 532.4,42.5 Z M570.3,87.5 L576.3,89 L576.3,90 L556.3,90 L556.3,89 L562.3,87.5 L562.3,46.5 L556.3,45 L556.3,44 L570.3,44 L570.3,56 C571.166671,53.533321 572.199994,51.30001 573.4,49.3 C574.466672,47.566658 575.766659,46.000007 577.3,44.6 C578.833341,43.199993 580.666656,42.5 582.8,42.5 C583.533337,42.5 584.23333,42.5499995 584.9,42.65 C585.56667,42.7500005 586.166664,42.866666 586.7,43 C587.300003,43.200001 587.833331,43.366666 588.3,43.5 L585.3,51 C584.899998,50.799999 584.466669,50.566668 584,50.3 C583.599998,50.099999 583.116669,49.9166675 582.55,49.75 C581.98333,49.5833325 581.400003,49.5 580.8,49.5 C579.066658,49.5 577.53334,49.966662 576.2,50.9 C574.86666,51.833338 573.766671,52.866661 572.9,54 C571.833328,55.33334 570.96667,56.833325 570.3,58.5 L570.3,87.5 Z M617.8,44 L617.8,46 L606.3,46 L606.3,77.9 C606.3,81.966687 607.033326,84.9166575 608.5,86.75 C609.966674,88.5833425 611.566658,89.5 613.3,89.5 C615.566678,89.5 617.483325,88.6500085 619.05,86.95 C620.616675,85.2499915 621.533332,82.766683 621.8,79.5 L623.3,79.5 C623.033332,83.300019 621.883343,86.2499895 619.85,88.35 C617.816656,90.4500105 615.300015,91.5 612.3,91.5 C608.033312,91.5 604.633346,90.2500125 602.1,87.75 C599.566654,85.2499875 598.3,82.00002 598.3,78 L598.3,46 L589.8,46 L589.8,44 L598.3,44 L598.3,32.5 L606.3,27 L606.3,44 L617.8,44 Z" transform="translate(-74 -18)"/>
</svg>
